<mxfile host="app.diagrams.net" modified="2024-05-08T11:02:50.431Z" agent="Mozilla/5.0 (Windows NT 10.0; Win64; x64) AppleWebKit/537.36 (KHTML, like Gecko) Chrome/124.0.0.0 Safari/537.36" etag="RAfTZTB59hysD1dBACwJ" version="24.3.1" type="device">
  <diagram name="Page-1" id="PuoCalawfX2Ifwhz0qIO">
    <mxGraphModel dx="1154" dy="509" grid="1" gridSize="10" guides="1" tooltips="1" connect="1" arrows="1" fold="1" page="1" pageScale="1" pageWidth="827" pageHeight="1169" math="0" shadow="0">
      <root>
        <mxCell id="0" />
        <mxCell id="1" parent="0" />
        <mxCell id="Sw3irCR8mbU8tDwXKz8e-3" value="" style="edgeStyle=orthogonalEdgeStyle;rounded=0;orthogonalLoop=1;jettySize=auto;html=1;" parent="1" source="Sw3irCR8mbU8tDwXKz8e-1" target="Sw3irCR8mbU8tDwXKz8e-2" edge="1">
          <mxGeometry relative="1" as="geometry" />
        </mxCell>
        <mxCell id="Sw3irCR8mbU8tDwXKz8e-1" value="start" style="ellipse;whiteSpace=wrap;html=1;" parent="1" vertex="1">
          <mxGeometry x="354" y="10" width="86" height="30" as="geometry" />
        </mxCell>
        <mxCell id="Sw3irCR8mbU8tDwXKz8e-6" value="" style="edgeStyle=orthogonalEdgeStyle;rounded=0;orthogonalLoop=1;jettySize=auto;html=1;" parent="1" source="Sw3irCR8mbU8tDwXKz8e-2" target="Sw3irCR8mbU8tDwXKz8e-5" edge="1">
          <mxGeometry relative="1" as="geometry" />
        </mxCell>
        <mxCell id="Sw3irCR8mbU8tDwXKz8e-2" value="enter features&amp;nbsp;&lt;div&gt;and game&lt;/div&gt;" style="shape=parallelogram;perimeter=parallelogramPerimeter;whiteSpace=wrap;html=1;fixedSize=1;" parent="1" vertex="1">
          <mxGeometry x="335.5" y="80" width="123" height="35" as="geometry" />
        </mxCell>
        <mxCell id="HfZNC9A13G5-Snr-SUZw-3" value="" style="edgeStyle=orthogonalEdgeStyle;rounded=0;orthogonalLoop=1;jettySize=auto;html=1;" edge="1" parent="1" source="Sw3irCR8mbU8tDwXKz8e-5" target="HfZNC9A13G5-Snr-SUZw-2">
          <mxGeometry relative="1" as="geometry" />
        </mxCell>
        <mxCell id="Sw3irCR8mbU8tDwXKz8e-5" value="load encoded labels&lt;div&gt;and game&amp;nbsp;&lt;span style=&quot;background-color: initial;&quot;&gt;weights&amp;nbsp;&lt;/span&gt;&lt;/div&gt;" style="whiteSpace=wrap;html=1;" parent="1" vertex="1">
          <mxGeometry x="332.38" y="140" width="129.25" height="43.75" as="geometry" />
        </mxCell>
        <mxCell id="fsmB0Dbn1ouRnb2Dh74g-3" value="" style="edgeStyle=orthogonalEdgeStyle;rounded=0;orthogonalLoop=1;jettySize=auto;html=1;" parent="1" source="Sw3irCR8mbU8tDwXKz8e-8" target="fsmB0Dbn1ouRnb2Dh74g-2" edge="1">
          <mxGeometry relative="1" as="geometry" />
        </mxCell>
        <mxCell id="Sw3irCR8mbU8tDwXKz8e-8" value="generating predicted probabilities&amp;nbsp;&lt;span style=&quot;background-color: initial;&quot;&gt;on the&lt;/span&gt;&lt;div&gt;&lt;div&gt;features&lt;/div&gt;&lt;/div&gt;" style="whiteSpace=wrap;html=1;" parent="1" vertex="1">
          <mxGeometry x="333.09" y="290" width="127.84" height="50" as="geometry" />
        </mxCell>
        <mxCell id="HfZNC9A13G5-Snr-SUZw-6" value="" style="edgeStyle=orthogonalEdgeStyle;rounded=0;orthogonalLoop=1;jettySize=auto;html=1;" edge="1" parent="1" source="Sw3irCR8mbU8tDwXKz8e-16" target="Sw3irCR8mbU8tDwXKz8e-18">
          <mxGeometry relative="1" as="geometry" />
        </mxCell>
        <mxCell id="Sw3irCR8mbU8tDwXKz8e-16" value="get predicted&amp;nbsp;&lt;div&gt;class&lt;/div&gt;" style="whiteSpace=wrap;html=1;" parent="1" vertex="1">
          <mxGeometry x="350.88" y="460" width="93" height="40" as="geometry" />
        </mxCell>
        <mxCell id="HfZNC9A13G5-Snr-SUZw-9" value="" style="edgeStyle=orthogonalEdgeStyle;rounded=0;orthogonalLoop=1;jettySize=auto;html=1;" edge="1" parent="1" source="Sw3irCR8mbU8tDwXKz8e-18" target="HfZNC9A13G5-Snr-SUZw-8">
          <mxGeometry relative="1" as="geometry" />
        </mxCell>
        <mxCell id="Sw3irCR8mbU8tDwXKz8e-18" value="get predicted&amp;nbsp;&lt;div&gt;level&lt;/div&gt;" style="whiteSpace=wrap;html=1;" parent="1" vertex="1">
          <mxGeometry x="352" y="530" width="90" height="40" as="geometry" />
        </mxCell>
        <mxCell id="Sw3irCR8mbU8tDwXKz8e-26" value="end" style="ellipse;whiteSpace=wrap;html=1;" parent="1" vertex="1">
          <mxGeometry x="357.38" y="670" width="80" height="30" as="geometry" />
        </mxCell>
        <mxCell id="fsmB0Dbn1ouRnb2Dh74g-4" value="" style="edgeStyle=orthogonalEdgeStyle;rounded=0;orthogonalLoop=1;jettySize=auto;html=1;" parent="1" source="fsmB0Dbn1ouRnb2Dh74g-2" target="Sw3irCR8mbU8tDwXKz8e-16" edge="1">
          <mxGeometry relative="1" as="geometry" />
        </mxCell>
        <mxCell id="fsmB0Dbn1ouRnb2Dh74g-2" value="take the highest probability" style="rounded=0;whiteSpace=wrap;html=1;" parent="1" vertex="1">
          <mxGeometry x="346.38" y="370" width="102" height="50" as="geometry" />
        </mxCell>
        <mxCell id="HfZNC9A13G5-Snr-SUZw-5" style="edgeStyle=orthogonalEdgeStyle;rounded=0;orthogonalLoop=1;jettySize=auto;html=1;entryX=0.5;entryY=0;entryDx=0;entryDy=0;" edge="1" parent="1" source="HfZNC9A13G5-Snr-SUZw-2" target="Sw3irCR8mbU8tDwXKz8e-8">
          <mxGeometry relative="1" as="geometry" />
        </mxCell>
        <mxCell id="HfZNC9A13G5-Snr-SUZw-2" value="inject the weights&lt;div&gt;in the architecture&lt;/div&gt;" style="rounded=0;whiteSpace=wrap;html=1;" vertex="1" parent="1">
          <mxGeometry x="332.38" y="220" width="130" height="40" as="geometry" />
        </mxCell>
        <mxCell id="HfZNC9A13G5-Snr-SUZw-10" value="" style="edgeStyle=orthogonalEdgeStyle;rounded=0;orthogonalLoop=1;jettySize=auto;html=1;" edge="1" parent="1" source="HfZNC9A13G5-Snr-SUZw-8" target="Sw3irCR8mbU8tDwXKz8e-26">
          <mxGeometry relative="1" as="geometry" />
        </mxCell>
        <mxCell id="HfZNC9A13G5-Snr-SUZw-8" value="update level&amp;nbsp;&lt;div&gt;in local storage&lt;/div&gt;" style="rounded=0;whiteSpace=wrap;html=1;" vertex="1" parent="1">
          <mxGeometry x="346.38" y="600" width="100" height="40" as="geometry" />
        </mxCell>
      </root>
    </mxGraphModel>
  </diagram>
</mxfile>
